<?xml version="1.0" encoding="iso-8859-1"?>
<!-- Uploaded to: SVG Repo, www.svgrepo.com, Generator: SVG Repo Mixer Tools -->
<!DOCTYPE svg PUBLIC "-//W3C//DTD SVG 1.1//EN" "http://www.w3.org/Graphics/SVG/1.1/DTD/svg11.dtd">
<svg fill="#000000" height="800px" width="800px" version="1.1" id="Capa_1" xmlns="http://www.w3.org/2000/svg" xmlns:xlink="http://www.w3.org/1999/xlink" 
	 viewBox="0 0 263.75 263.75" xml:space="preserve">
<path d="M262.045,109.525c-1.425-1.734-3.551-2.65-5.795-2.65h-12.667c0.056-0.613-0.088-1.231-0.088-1.859
	c0-8.533-4.953-15.84-12.953-18.84V64.481c0-13.039-10.245-23.605-23.285-23.605h-21.932c-2.311,0-4.783-1.922-4.783-4.233V25.619
	c0-9.662-7.27-17.744-16.932-17.744H100.14c-9.661,0-17.598,8.082-17.598,17.744v11.022c0,2.312-1.805,4.233-4.117,4.233H56.638
	c-13.04,0-24.096,10.565-24.096,23.604v21.626c-7,2.953-12.737,10.306-12.737,18.91c0,0.628,0.261,1.246,0.317,1.859H7.5
	c-2.244,0-4.37,0.916-5.795,2.65c-1.425,1.734-1.998,3.97-1.563,6.172l26.449,133.952c0.694,3.513,3.776,6.226,7.357,6.226H229.8
	c3.581,0,6.663-2.735,7.357-6.248l26.45-133.828C264.043,113.597,263.47,111.26,262.045,109.525z M223.37,110.321
	c-2.926,0-5.307-2.38-5.307-5.306s2.381-5.306,5.307-5.306c2.926,0,5.307,2.38,5.307,5.306S226.296,110.321,223.37,110.321z
	 M56.638,55.875h21.787c10.583,0,19.117-8.651,19.117-19.233V25.619c0-1.391,1.207-2.744,2.598-2.744h63.471
	c1.392,0,1.932,1.354,1.932,2.744v11.022c0,10.583,9.201,19.233,19.783,19.233h21.932c4.769,0,8.285,3.838,8.285,8.605v21.67
	c-7,2.982-12.661,10.306-12.661,18.865c0,0.628,0.22,1.246,0.276,1.859H60.546c0.057-0.613-0.129-1.231-0.129-1.859
	c0-8.488-4.875-15.767-12.875-18.796V64.48C47.542,59.712,51.869,55.875,56.638,55.875z M40.334,99.71
	c2.926,0,5.307,2.38,5.307,5.306s-2.381,5.306-5.307,5.306c-2.926,0-5.306-2.38-5.306-5.306S37.408,99.71,40.334,99.71z
	 M208.216,220.875H55.53c-4.143,0-7.5-3.357-7.5-7.5c0-4.143,3.357-7.5,7.5-7.5h152.685c4.143,0,7.5,3.357,7.5,7.5
	C215.716,217.518,212.358,220.875,208.216,220.875z M223.349,187.875H40.401c-4.143,0-7.5-3.357-7.5-7.5c0-4.143,3.357-7.5,7.5-7.5
	h182.947c4.143,0,7.5,3.357,7.5,7.5C230.849,184.518,227.491,187.875,223.349,187.875z M230.915,154.875H32.835
	c-4.143,0-7.5-3.357-7.5-7.5c0-4.143,3.357-7.5,7.5-7.5h198.08c4.143,0,7.5,3.357,7.5,7.5
	C238.415,151.518,235.058,154.875,230.915,154.875z"/>
</svg>